<svg width="924" height="743" viewBox="0 0 924 743" fill="none" xmlns="http://www.w3.org/2000/svg">
<path d="M149.249 540.575H139.249L142.249 523.575H149.249V540.575Z" fill="#3F3D56"/>
<path d="M145.394 640.784C177.899 640.784 204.249 618.044 204.249 589.993C204.249 561.942 177.899 539.203 145.394 539.203C112.889 539.203 86.5381 561.942 86.5381 589.993C86.5381 618.044 112.889 640.784 145.394 640.784Z" fill="#F65C26"/>
<path opacity="0.1" d="M106.275 628.898C96.323 586.198 109.542 549.049 109.677 548.679L111.556 549.362C111.424 549.727 98.4109 586.344 108.223 628.444L106.275 628.898Z" fill="black"/>
<path opacity="0.1" d="M178.551 632.867L176.696 632.12C195.677 585.012 176.929 548.328 176.738 547.963L178.509 547.033C178.704 547.407 197.874 584.911 178.551 632.867Z" fill="black"/>
<path opacity="0.1" d="M127.388 639.131C103.361 602.136 127.008 541.646 127.25 541.04L129.108 541.78C128.87 542.377 105.604 601.918 129.066 638.042L127.388 639.131Z" fill="black"/>
<path opacity="0.1" d="M163.4 639.131L161.722 638.042C185.193 601.905 161.917 542.377 161.68 541.78L163.537 541.04C163.78 541.646 187.427 602.136 163.4 639.131Z" fill="black"/>
<path opacity="0.1" d="M122.749 559.222L129.999 571.779L137.249 584.336H122.749H108.249L115.499 571.779L122.749 559.222Z" fill="black"/>
<path d="M122.749 561.891L128.458 571.779L134.167 581.667H122.749H111.331L117.04 571.779L122.749 561.891Z" fill="#3F3D56"/>
<path opacity="0.1" d="M146.749 600.274L142.999 593.779L139.249 587.284H146.749H154.249L150.499 593.779L146.749 600.274Z" fill="black"/>
<path d="M146.749 598.894L143.796 593.779L140.843 588.664H146.749H152.655L149.702 593.779L146.749 598.894Z" fill="#3F3D56"/>
<path opacity="0.1" d="M168.749 559.222L175.999 571.779L183.249 584.336H168.749H154.249L161.499 571.779L168.749 559.222Z" fill="black"/>
<path d="M168.749 561.891L174.458 571.779L180.167 581.667H168.749H157.331L163.04 571.779L168.749 561.891Z" fill="#3F3D56"/>
<path opacity="0.1" d="M170.249 604.523H122.249V614.628H170.249V604.523Z" fill="black"/>
<path d="M165.249 605.575H127.249V613.575H165.249V605.575Z" fill="#3F3D56"/>
<path d="M135.749 610.804L132.796 605.69L129.843 600.575H135.749H141.655L138.702 605.69L135.749 610.804Z" fill="#F65C26"/>
<path d="M155.749 610.804L152.796 605.69L149.843 600.575H155.749H161.655L158.702 605.69L155.749 610.804Z" fill="#F65C26"/>
</svg>
